<?xml version="1.0" encoding="utf-8"?>
<!-- Generator: Adobe Illustrator 22.0.1, SVG Export Plug-In . SVG Version: 6.00 Build 0)  -->
<svg version="1.1" id="Layer_1" xmlns="http://www.w3.org/2000/svg" xmlns:xlink="http://www.w3.org/1999/xlink" x="0px" y="0px"
	 viewBox="0 0 300 80" style="enable-background:new 0 0 300 80;" xml:space="preserve">
<style type="text/css">
	.st0{fill:#4E3E97;}
	.st1{fill:#61C7D5;}
</style>
<g>
	<path class="st0" d="M93.4,58.5c-2.3,0-4-0.6-5.4-1.8c-1.3-1.2-2.1-2.9-2.1-5V30.5c0-2.1,0.7-3.8,2.1-5c1.3-1.2,3.1-1.9,5.4-1.9
		h11.5c2.3,0,4,0.7,5.4,1.9c1.3,1.2,2.1,2.9,2.1,5v4.9h-6.3v-4c0-1.5-0.8-2.3-2.4-2.3h-8.9c-0.8,0-1.3,0.2-1.8,0.6
		c-0.4,0.4-0.7,0.9-0.7,1.7v19.4c0,0.8,0.2,1.3,0.7,1.7c0.4,0.4,1,0.6,1.8,0.6h8.9c1.6,0,2.4-0.8,2.4-2.3v-4h6.3v4.9
		c0,2.1-0.7,3.8-2.1,5c-1.3,1.2-3.2,1.8-5.4,1.8L93.4,58.5z"/>
	<path class="st0" d="M133.1,32.2c2.2,0,3.9,0.7,5.3,1.9c1.3,1.2,2.1,2.9,2.1,4.9v12.9c0,2-0.7,3.6-2.1,4.9
		c-1.3,1.2-3.1,1.8-5.3,1.8h-8.5c-2.2,0-3.9-0.6-5.3-1.8c-1.3-1.2-2.1-2.9-2.1-4.9v-13c0-2,0.7-3.6,2.1-4.9c1.3-1.2,3.1-1.9,5.3-1.9
		L133.1,32.2L133.1,32.2z M134.4,39c0-0.7-0.2-1.2-0.7-1.6c-0.4-0.5-1-0.7-1.7-0.7h-6.5c-0.8,0-1.3,0.2-1.7,0.7
		c-0.4,0.5-0.7,0.9-0.7,1.6v12.4c0,0.7,0.2,1.2,0.7,1.6c0.4,0.5,1,0.7,1.7,0.7h6.5c0.8,0,1.3-0.2,1.7-0.7c0.4-0.5,0.7-0.9,0.7-1.6
		V39z"/>
	<path class="st0" d="M162.1,39.4c0-0.8-0.2-1.3-0.7-1.7c-0.4-0.5-1-0.7-1.8-0.7h-1.2c-1.9,0-3.8,0.4-5.4,1.3l-1.6,0.9v18.9h-6V22.1
		h6v13.6l1.6-1.2c2.1-1.6,3.9-2.3,5.8-2.3h2c2.2,0,3.9,0.7,5.3,1.9c1.3,1.2,2.1,2.9,2.1,4.9v19.4h-6L162.1,39.4L162.1,39.4z"/>
	<path class="st0" d="M178.8,51.5c0,0.7,0.2,1.2,0.7,1.6c0.4,0.4,1,0.6,1.7,0.6h6.1c0.8,0,1.3-0.2,1.7-0.6c0.4-0.4,0.7-0.9,0.7-1.6
		V50h6v1.7c0,2-0.7,3.6-2.1,4.9c-1.3,1.2-3.1,1.8-5.3,1.8h-8.2c-2.2,0-3.9-0.6-5.3-1.8c-1.3-1.2-2.1-2.9-2.1-4.9V38.9
		c0-2,0.7-3.6,2.1-4.9c1.3-1.2,3.1-1.9,5.3-1.9h8.2c2.2,0,3.9,0.7,5.3,1.9s2.1,2.9,2.1,4.9v8h-16.8V51.5z M181.2,36.8
		c-0.8,0-1.3,0.2-1.7,0.6c-0.4,0.4-0.7,0.9-0.7,1.6v3.9h10.8V39c0-0.7-0.2-1.2-0.7-1.6s-1-0.6-1.7-0.6
		C187.3,36.8,181.2,36.8,181.2,36.8z"/>
	<path class="st0" d="M215.8,38.8c0-1.4-0.8-2.2-2.2-2.2h-5.2c-1.5,0-2.2,0.8-2.2,2.2v1.5c0,1,0.7,1.6,2.1,1.8l8,1.2
		c4,0.7,6.1,2.5,6.1,5.6v3c0,2-0.7,3.6-2,4.7c-1.3,1.2-3,1.8-5.2,1.8h-8.3c-2.2,0-3.9-0.6-5.2-1.8c-1.3-1.2-2-2.8-2-4.7V50h6v1.6
		c0,1.4,0.8,2.2,2.2,2.2h6.2c1.5,0,2.2-0.8,2.2-2.2v-1.8c0-1-0.8-1.7-2.2-1.9l-8-1.2c-4-0.7-6.1-2.5-6.1-5.6v-2.3c0-2,0.7-3.6,2-4.7
		c1.3-1.2,3-1.8,5.2-1.8h7.2c2.1,0,3.9,0.7,5.2,1.8c1.3,1.2,2,2.8,2,4.7v1.4h-6L215.8,38.8L215.8,38.8z"/>
	<rect x="227" y="22.1" class="st1" width="6.5" height="5.5"/>
	<rect x="227.3" y="32.4" class="st0" width="6" height="25.8"/>
	<path class="st0" d="M253.3,58.2h-6.8l-9.2-25.8h6.5l6.3,21l6.3-21h6.1L253.3,58.2z"/>
	<path class="st0" d="M271.2,51.5c0,0.7,0.2,1.2,0.7,1.6c0.4,0.4,1,0.6,1.7,0.6h6.1c0.8,0,1.3-0.2,1.7-0.6c0.4-0.4,0.7-0.9,0.7-1.6
		V50h6v1.7c0,2-0.7,3.6-2.1,4.9c-1.3,1.2-3.1,1.8-5.3,1.8h-8.2c-2.2,0-3.9-0.6-5.3-1.8c-1.3-1.2-2.1-2.9-2.1-4.9V38.9
		c0-2,0.7-3.6,2.1-4.9c1.3-1.2,3.1-1.9,5.3-1.9h8.2c2.2,0,3.9,0.7,5.3,1.9c1.3,1.2,2.1,2.9,2.1,4.9v8h-16.8V51.5z M273.5,36.8
		c-0.8,0-1.3,0.2-1.7,0.6c-0.4,0.4-0.7,0.9-0.7,1.6v3.9H282V39c0-0.7-0.2-1.2-0.7-1.6c-0.4-0.4-1-0.6-1.7-0.6
		C279.6,36.8,273.5,36.8,273.5,36.8z"/>
</g>
<g>
	<path class="st0" d="M18.1,63.2c-4.1-2.4-6.2-6.1-6.2-11.1V16.2c0-4.9,2.1-6.1,6.3-3.7l23.8,14c4.2,2.4,6.2,5.9,6.2,11V44l-7.5-4.4
		v-5.2c0-0.8-0.2-1.1-0.8-1.5L20.3,21.5c-0.7-0.4-0.8-0.3-0.8,0.5v32.4c0,0.7,0.3,1.2,0.8,1.5l19.5,11.6c0.7,0.4,0.8,0.3,0.8-0.5
		v-5.1l7.5,4.4v7.3c0,4.9-2.1,6.1-6.2,3.7L18.1,63.2z"/>
</g>
<path class="st1" d="M57.3,16.8L32.8,2.2c-4.1-2.4-6.2-1.2-6.2,3.7v7.4l7.5,4.4v-5.2c0-0.8,0.2-0.9,0.8-0.5l20.3,12
	c0.7,0.4,0.8,0.8,0.8,1.5V58c0,0.8-0.2,0.9-0.8,0.5l-20.3-12c-0.6-0.4-0.8-0.8-0.8-1.5v-9.8l-7.5-4.4v11.1c0,4.9,2.1,8.6,6.2,11.1
	l24.5,14.5c4.1,2.4,6.2,1.2,6.2-3.7V27.9C63.5,22.9,61.6,19.3,57.3,16.8z"/>
</svg>
